<svg xmlns="http://www.w3.org/2000/svg" viewBox="0 0 3840 2160">
  <defs>
    <linearGradient id="bg" x1="0" y1="0" x2="1" y2="1">
      <stop offset="0%" stop-color="#09111d"/>
      <stop offset="50%" stop-color="#13233b"/>
      <stop offset="100%" stop-color="#05080f"/>
    </linearGradient>
    <linearGradient id="glow" x1="0" y1="0" x2="1" y2="0">
      <stop offset="0%" stop-color="#1cb4ff" stop-opacity="0.1"/>
      <stop offset="50%" stop-color="#7df9ff" stop-opacity="0.9"/>
      <stop offset="100%" stop-color="#9d7bff" stop-opacity="0.1"/>
    </linearGradient>
    <filter id="blur"><feGaussianBlur stdDeviation="18"/></filter>
  </defs>
  <rect width="3840" height="2160" fill="url(#bg)"/>
  <g opacity="0.35" stroke="#1cb4ff" stroke-width="5" fill="none">
    <path d="M220 360h700l120 120h940l140-140h1180"/>
    <path d="M0 980h820l100-100h660l180 180h980"/>
    <path d="M180 1700h560l180-180h820l120 120h1380"/>
    <path d="M860 0v520l110 110v420l-180 180v930"/>
    <path d="M2190 0v410l170 170v600l220 220v760"/>
    <path d="M3200 0v760l-140 140v440l200 200v620"/>
  </g>
  <g fill="#7df9ff">
    <circle cx="1040" cy="480" r="18"/>
    <circle cx="1580" cy="880" r="14"/>
    <circle cx="2380" cy="580" r="20"/>
    <circle cx="2660" cy="1360" r="16"/>
    <circle cx="920" cy="1520" r="18"/>
    <circle cx="3260" cy="900" r="16"/>
  </g>
  <g filter="url(#blur)">
    <ellipse cx="1040" cy="480" rx="120" ry="40" fill="url(#glow)"/>
    <ellipse cx="2360" cy="580" rx="180" ry="50" fill="url(#glow)"/>
    <ellipse cx="1940" cy="1360" rx="520" ry="120" fill="url(#glow)"/>
  </g>
  <g font-family="Inter, Segoe UI, sans-serif" fill="#eef7ff">
    <text x="260" y="1360" font-size="188" font-weight="700">Kismet OS</text>
    <text x="270" y="1488" font-size="56" opacity="0.9">Hermes-first AI suite, OpenCode-ready, local model aware</text>
    <text x="270" y="1578" font-size="44" opacity="0.62">calm polish, coding focus, kernel-aware recommendations</text>
  </g>
</svg>
