<svg xmlns="http://www.w3.org/2000/svg" viewBox="0 0 3840 2160">
  <defs>
    <linearGradient id="bg" x1="0" y1="0" x2="0.9" y2="1">
      <stop offset="0%" stop-color="#05070d"/>
      <stop offset="55%" stop-color="#111827"/>
      <stop offset="100%" stop-color="#1c2542"/>
    </linearGradient>
    <linearGradient id="accent" x1="0" y1="0" x2="1" y2="1">
      <stop offset="0%" stop-color="#8bf3ff"/>
      <stop offset="50%" stop-color="#1cb4ff"/>
      <stop offset="100%" stop-color="#8a6cff"/>
    </linearGradient>
  </defs>
  <rect width="3840" height="2160" fill="url(#bg)"/>
  <g opacity="0.16" fill="none" stroke="#7df9ff" stroke-width="2">
    <path d="M0 340h3840"/>
    <path d="M0 680h3840"/>
    <path d="M0 1020h3840"/>
    <path d="M0 1360h3840"/>
    <path d="M0 1700h3840"/>
    <path d="M540 0v2160"/>
    <path d="M1080 0v2160"/>
    <path d="M1620 0v2160"/>
    <path d="M2160 0v2160"/>
    <path d="M2700 0v2160"/>
    <path d="M3240 0v2160"/>
  </g>
  <rect x="350" y="250" width="3140" height="1660" rx="42" fill="#09111d" stroke="#35557b" stroke-width="4"/>
  <rect x="350" y="250" width="3140" height="120" rx="42" fill="#101b2d"/>
  <circle cx="430" cy="310" r="15" fill="#ff6b7d"/>
  <circle cx="480" cy="310" r="15" fill="#ffd166"/>
  <circle cx="530" cy="310" r="15" fill="#55efc4"/>
  <g font-family="JetBrains Mono, Fira Code, monospace" fill="#d9e9ff">
    <text x="640" y="324" font-size="42">Kismet Neural Terminal</text>
    <text x="500" y="540" font-size="54" fill="#7df9ff">$ kismet-ai-center --recommend</text>
    <text x="500" y="650" font-size="46" fill="#b9cce5">&gt; profile: creator, preferred: Hermes, coding: OpenCode</text>
    <text x="500" y="760" font-size="46" fill="#b9cce5">&gt; local stack: Ollama + OpenClaw + model routing</text>
    <text x="500" y="910" font-size="62" fill="url(#accent)">KISMET OS</text>
    <text x="500" y="1010" font-size="50" fill="#eef7ff">build, reason, ship</text>
    <text x="500" y="1210" font-size="44" fill="#7df9ff">hermes://primary-agent</text>
    <text x="500" y="1290" font-size="44" fill="#8a6cff">opencode://coding-agent</text>
    <text x="500" y="1370" font-size="44" fill="#55efc4">ollama://recommended-models</text>
    <text x="500" y="1560" font-size="38" fill="#7f93b5">Zorin-inspired calm, Mac-like polish, coder-first defaults</text>
  </g>
</svg>
