<svg xmlns="http://www.w3.org/2000/svg" viewBox="0 0 256 256" role="img" aria-label="Kismet Mines icon">
  <defs>
    <linearGradient id="bg" x1="0" y1="0" x2="1" y2="1">
      <stop offset="0%" stop-color="#0f172a"/>
      <stop offset="100%" stop-color="#1d4ed8"/>
    </linearGradient>
  </defs>
  <rect x="20" y="20" width="216" height="216" rx="52" fill="url(#bg)"/>
  <rect x="64" y="64" width="128" height="128" rx="20" fill="#e2e8f0"/>
  <g fill="#93c5fd">
    <rect x="64" y="64" width="42.66" height="42.66"/>
    <rect x="149.34" y="64" width="42.66" height="42.66"/>
    <rect x="106.67" y="106.67" width="42.66" height="42.66"/>
    <rect x="64" y="149.34" width="42.66" height="42.66"/>
    <rect x="149.34" y="149.34" width="42.66" height="42.66"/>
  </g>
  <circle cx="128" cy="128" r="24" fill="#111827"/>
  <g stroke="#111827" stroke-width="8" stroke-linecap="round">
    <path d="M128 88V76"/>
    <path d="M128 180v-12"/>
    <path d="M88 128H76"/>
    <path d="M180 128h-12"/>
    <path d="M99 99l-9-9"/>
    <path d="M157 157l9 9"/>
    <path d="M157 99l9-9"/>
    <path d="M99 157l-9 9"/>
  </g>
</svg>
