<svg xmlns="http://www.w3.org/2000/svg" viewBox="0 0 256 256" role="img" aria-label="Kismet Chess icon">
  <defs>
    <linearGradient id="bg" x1="0" y1="0" x2="1" y2="1">
      <stop offset="0%" stop-color="#1e293b"/>
      <stop offset="100%" stop-color="#7c3aed"/>
    </linearGradient>
  </defs>
  <rect x="20" y="20" width="216" height="216" rx="52" fill="url(#bg)"/>
  <path d="M128 62c14 0 26 12 26 26 0 9-5 17-12 22l7 17c9 5 15 15 15 27v8H92v-8c0-12 6-22 15-27l7-17c-7-5-12-13-12-22 0-14 12-26 26-26Z" fill="#f8fafc"/>
  <path d="M110 182h36l10 18H100z" fill="#cbd5e1"/>
  <path d="M118 46h20" stroke="#f8fafc" stroke-width="10" stroke-linecap="round"/>
  <path d="M128 36v20" stroke="#f8fafc" stroke-width="10" stroke-linecap="round"/>
</svg>
